<?xml version="1.0" encoding="utf-8"?>
<!-- Generator: Adobe Illustrator 23.0.0, SVG Export Plug-In . SVG Version: 6.00 Build 0)  -->
<svg version="1.1" id="Capa_1" xmlns="http://www.w3.org/2000/svg" xmlns:xlink="http://www.w3.org/1999/xlink" x="0px" y="0px"
	 viewBox="0 0 480 480" style="enable-background:new 0 0 480 480;" xml:space="preserve">
<style type="text/css">
	.st0{fill:#F7DA5E;}
	.st1{fill:#4CD5E7;}
</style>
<g>
	<path class="st0" d="M456,445.2v-136c0-8.8-7.2-16-16-16h-64c-8.8,0-16,7.2-16,16v136H456z"/>
	<path class="st0" d="M288,445.2v-136c0-8.8-7.2-16-16-16h-64c-8.8,0-16,7.2-16,16v136H288z"/>
	<path class="st0" d="M120,445.2v-136c0-8.8-7.2-16-16-16H40c-8.8,0-16,7.2-16,16v136H120z"/>
</g>
<path class="st1" d="M472,453.2H8c-4.8,0-8-3.2-8-8s3.2-8,8-8h464c4.8,0,8,3.2,8,8S476.8,453.2,472,453.2z"/>
</svg>
