<?xml version="1.0" encoding="utf-8"?>
<!-- Generator: Adobe Illustrator 23.0.0, SVG Export Plug-In . SVG Version: 6.00 Build 0)  -->
<svg version="1.1" id="Capa_1" xmlns="http://www.w3.org/2000/svg" xmlns:xlink="http://www.w3.org/1999/xlink" x="0px" y="0px"
	 viewBox="0 0 480 480" style="enable-background:new 0 0 480 480;" xml:space="preserve">
<style type="text/css">
	.st0{fill:#FC605B;}
	.st1{fill:#4CD5E7;}
</style>
<g>
	<path class="st0" d="M360,449.3v-400c0-8.8,7.2-16,16-16h64c8.8,0,16,7.2,16,16v400H360z"/>
	<path class="st0" d="M192,449.3v-264c0-8.8,7.2-16,16-16h64c8.8,0,16,7.2,16,16v264H192z"/>
	<path class="st0" d="M24,449.3v-136c0-8.8,7.2-16,16-16h64c8.8,0,16,7.2,16,16v136H24z"/>
	<path class="st0" d="M231.2,40.5v-0.8v-0.8c-0.8-1.6-2.4-3.2-4-4h-0.8h-0.8l-57.6-12c-4-0.8-8.8,2.4-9.6,6.4s1.6,8,6.4,9.6l41.6,8
		l-164,164.8c-3.2,3.2-3.2,8,0,11.2s8,3.2,11.2,0l0,0L218.4,58.1l8,41.6c0.8,4,4,6.4,8,6.4c0.8,0,0.8,0,1.6,0c4-0.8,7.2-4.8,6.4-9.6
		L231.2,40.5z"/>
</g>
<path class="st1" d="M472,457.3H8c-4.8,0-8-3.2-8-8s3.2-8,8-8h464c4.8,0,8,3.2,8,8S476.8,457.3,472,457.3z"/>
</svg>
