<?xml version="1.0" encoding="utf-8"?>
<!-- Generator: Adobe Illustrator 23.0.0, SVG Export Plug-In . SVG Version: 6.00 Build 0)  -->
<svg version="1.1" id="Capa_1" xmlns="http://www.w3.org/2000/svg" xmlns:xlink="http://www.w3.org/1999/xlink" x="0px" y="0px"
	 viewBox="0 0 480 480" style="enable-background:new 0 0 480 480;" xml:space="preserve">
<style type="text/css">
	.st0{fill:#A1F95D;}
	.st1{fill:#4CD5E7;}
</style>
<g>
	<path class="st0" d="M436.8,211.6l11.2-56.8c0.8-4-1.6-8.8-5.6-9.6s-8.8,1.6-9.6,5.6c0,0,0,0,0,0.8l-8,41.6l-165.6-164
		c-3.2-3.2-8-3.2-11.2,0s-3.2,8,0,11.2l0,0l164.8,164.8l-41.6,8c-4,0.8-7.2,4.8-6.4,9.6c0.8,4,4,6.4,8,6.4c0.8,0,0.8,0,1.6,0
		l56.8-11.2c0.8,0,0.8-0.8,1.6-0.8c1.6-0.8,3.2-2.4,4-4v-0.8C436,212.4,436.8,211.6,436.8,211.6z"/>
	<path class="st0" d="M24,445.2v-400c0-8.8,7.2-16,16-16h64c8.8,0,16,7.2,16,16v400H24z"/>
	<path class="st0" d="M288,445.2v-264c0-8.8-7.2-16-16-16h-64c-8.8,0-16,7.2-16,16v264H288z"/>
	<path class="st0" d="M456,445.2v-136c0-8.8-7.2-16-16-16h-64c-8.8,0-16,7.2-16,16v136H456z"/>
</g>
<path class="st1" d="M472,453.2H8c-4.8,0-8-3.2-8-8s3.2-8,8-8h464c4.8,0,8,3.2,8,8S476.8,453.2,472,453.2z"/>
</svg>
