<?xml version="1.0" encoding="utf-8"?>
<!-- Generator: Adobe Illustrator 23.0.0, SVG Export Plug-In . SVG Version: 6.00 Build 0)  -->
<svg version="1.1" id="Layer_1" xmlns="http://www.w3.org/2000/svg" xmlns:xlink="http://www.w3.org/1999/xlink" x="0px" y="0px"
	 viewBox="0 0 1111.6 360.5" style="enable-background:new 0 0 1111.6 360.5;" xml:space="preserve">
<style type="text/css">
	.st0{clip-path:url(#SVGID_2_);}
</style>
<g>
	<defs>
		<rect id="SVGID_1_" x="0" y="0" width="1800" height="900"/>
	</defs>
	<clipPath id="SVGID_2_">
		<use xlink:href="#SVGID_1_"  style="overflow:visible;"/>
	</clipPath>
	<path class="st0" d="M139.5,138.9c0,6-4.8,10.8-10.8,10.8c-6,0-10.8-4.8-10.8-10.8c0-6,4.8-10.8,10.8-10.8
		C134.7,128.1,139.5,133,139.5,138.9 M171.9,124.5c-8,0-14.4,6.4-14.4,14.4c0,8,6.4,14.4,14.4,14.4c8,0,14.4-6.4,14.4-14.4
		C186.3,131,179.9,124.5,171.9,124.5 M128.7,167.7c-8,0-14.4,6.4-14.4,14.4c0,8,6.4,14.4,14.4,14.4s14.4-6.4,14.4-14.4
		C143.1,174.2,136.7,167.7,128.7,167.7 M171.9,164.1c-9.9,0-18,8.1-18,18c0,9.9,8.1,18,18,18c9.9,0,18-8.1,18-18
		C189.9,172.2,181.9,164.1,171.9,164.1 M85.5,131.7c-4,0-7.2,3.2-7.2,7.2c0,4,3.2,7.2,7.2,7.2c4,0,7.2-3.2,7.2-7.2
		C92.7,134.9,89.5,131.7,85.5,131.7 M42.3,167.7c-8,0-14.4,6.4-14.4,14.4c0,8,6.4,14.4,14.4,14.4s14.4-6.4,14.4-14.4
		C56.7,174.2,50.3,167.7,42.3,167.7 M85.5,171.3c-6,0-10.8,4.8-10.8,10.8c0,6,4.8,10.8,10.8,10.8s10.8-4.8,10.8-10.8
		C96.3,176.2,91.5,171.3,85.5,171.3 M171.9,38.1c-8,0-14.4,6.4-14.4,14.4s6.4,14.4,14.4,14.4c8,0,14.4-6.4,14.4-14.4
		S179.9,38.1,171.9,38.1 M128.7,88.5c-4,0-7.2,3.2-7.2,7.2c0,4,3.2,7.2,7.2,7.2c4,0,7.2-3.2,7.2-7.2
		C135.9,91.7,132.7,88.5,128.7,88.5 M171.9,84.9c-6,0-10.8,4.8-10.8,10.8c0,6,4.8,10.8,10.8,10.8c6,0,10.8-4.8,10.8-10.8
		C182.7,89.8,177.9,84.9,171.9,84.9 M85.5,77.7c-9.9,0-18,8.1-18,18c0,9.9,8.1,18,18,18c9.9,0,18-8.1,18-18
		C103.5,85.8,95.5,77.7,85.5,77.7 M301.5,167.7c-8,0-14.4,6.4-14.4,14.4c0,8,6.4,14.4,14.4,14.4s14.4-6.4,14.4-14.4
		C315.9,174.2,309.5,167.7,301.5,167.7 M215.1,128.1c-6,0-10.8,4.8-10.8,10.8c0,6,4.8,10.8,10.8,10.8c6,0,10.8-4.8,10.8-10.8
		C225.9,133,221.1,128.1,215.1,128.1 M258.3,131.7c-4,0-7.2,3.2-7.2,7.2c0,4,3.2,7.2,7.2,7.2c4,0,7.2-3.2,7.2-7.2
		C265.5,134.9,262.3,131.7,258.3,131.7 M215.1,167.7c-8,0-14.4,6.4-14.4,14.4c0,8,6.4,14.4,14.4,14.4s14.4-6.4,14.4-14.4
		C229.5,174.2,223.1,167.7,215.1,167.7 M258.3,171.3c-6,0-10.8,4.8-10.8,10.8c0,6,4.8,10.8,10.8,10.8c6,0,10.8-4.8,10.8-10.8
		C269.1,176.2,264.3,171.3,258.3,171.3 M215.1,88.5c-4,0-7.2,3.2-7.2,7.2c0,4,3.2,7.2,7.2,7.2c4,0,7.2-3.2,7.2-7.2
		C222.3,91.7,219.1,88.5,215.1,88.5 M258.3,77.7c-9.9,0-18,8.1-18,18c0,9.9,8.1,18,18,18c9.9,0,18-8.1,18-18
		C276.3,85.8,268.3,77.7,258.3,77.7 M171.9,297.3c-8,0-14.4,6.4-14.4,14.4c0,8,6.4,14.4,14.4,14.4c8,0,14.4-6.4,14.4-14.4
		C186.3,303.8,179.9,297.3,171.9,297.3 M128.7,214.5c-6,0-10.8,4.8-10.8,10.8c0,6,4.8,10.8,10.8,10.8c6,0,10.8-4.8,10.8-10.8
		C139.5,219.4,134.7,214.5,128.7,214.5 M171.9,210.9c-8,0-14.4,6.4-14.4,14.4s6.4,14.4,14.4,14.4c8,0,14.4-6.4,14.4-14.4
		S179.9,210.9,171.9,210.9 M128.7,261.3c-4,0-7.2,3.2-7.2,7.2c0,4,3.2,7.2,7.2,7.2c4,0,7.2-3.2,7.2-7.2
		C135.9,264.5,132.7,261.3,128.7,261.3 M171.9,257.7c-6,0-10.8,4.8-10.8,10.8c0,6,4.8,10.8,10.8,10.8c6,0,10.8-4.8,10.8-10.8
		C182.7,262.6,177.9,257.7,171.9,257.7 M85.5,218.1c-4,0-7.2,3.2-7.2,7.2c0,4,3.2,7.2,7.2,7.2c4,0,7.2-3.2,7.2-7.2
		C92.7,221.3,89.5,218.1,85.5,218.1 M85.5,250.5c-9.9,0-18,8.1-18,18c0,9.9,8.1,18,18,18c9.9,0,18-8.1,18-18
		C103.5,258.6,95.5,250.5,85.5,250.5 M215.1,214.5c-6,0-10.8,4.8-10.8,10.8c0,6,4.8,10.8,10.8,10.8c6,0,10.8-4.8,10.8-10.8
		C225.9,219.4,221.1,214.5,215.1,214.5 M258.3,218.1c-4,0-7.2,3.2-7.2,7.2c0,4,3.2,7.2,7.2,7.2c4,0,7.2-3.2,7.2-7.2
		C265.5,221.3,262.3,218.1,258.3,218.1 M215.1,261.3c-4,0-7.2,3.2-7.2,7.2c0,4,3.2,7.2,7.2,7.2c4,0,7.2-3.2,7.2-7.2
		C222.3,264.5,219.1,261.3,215.1,261.3 M258.3,250.5c-9.9,0-18,8.1-18,18c0,9.9,8.1,18,18,18c9.9,0,18-8.1,18-18
		C276.3,258.6,268.3,250.5,258.3,250.5"/>
	<path class="st0" d="M434.2,241.1c-9.5,0-17.5-1.6-24.1-4.9c-6.6-3.3-12.2-7.5-16.9-12.6l15.5-15.6c7.3,8.2,16.3,12.3,27.1,12.3
		c5.8,0,10.1-1.2,12.8-3.5c2.8-2.4,4.2-5.5,4.2-9.4c0-3-0.8-5.4-2.5-7.4c-1.7-2-5-3.3-10.1-4.1l-10.7-1.4
		c-11.4-1.4-19.8-4.9-25.1-10.4c-5.3-5.5-8-12.7-8-21.8c0-4.9,0.9-9.3,2.8-13.3c1.9-4,4.5-7.5,8-10.4c3.5-2.9,7.7-5.1,12.7-6.7
		c5-1.6,10.7-2.4,17.1-2.4c8.1,0,15.3,1.3,21.5,3.9c6.2,2.6,11.5,6.3,15.9,11.3l-15.6,15.8c-2.6-3-5.7-5.4-9.4-7.3
		c-3.7-1.9-8.3-2.8-13.8-2.8c-5.3,0-9.2,0.9-11.8,2.8c-2.6,1.8-3.9,4.4-3.9,7.7c0,3.7,1,6.3,3,8c2,1.6,5.3,2.8,9.8,3.5l10.7,1.7
		c11.1,1.8,19.4,5.2,24.7,10.3c5.4,5.1,8,12.4,8,21.8c0,5.2-0.9,9.9-2.8,14.2c-1.9,4.3-4.6,8-8.1,11.1c-3.6,3.1-8,5.5-13.2,7.2
		C446.9,240.3,440.9,241.1,434.2,241.1"/>
	<path class="st0" d="M525,239.3c-7.8,0-13.6-1.9-17.2-5.7c-3.7-3.8-5.5-9.3-5.5-16.5v-92.2h22.9v96.7h10.2v17.8H525z"/>
	<path class="st0" d="M627.5,204.5v-6.8c0-5.5-0.7-10.7-2.1-15.7c-1.4-5-3.6-9.4-6.6-13.2c-3-3.8-7-6.9-11.8-9.1
		c-4.8-2.3-10.5-3.4-17.2-3.4c-6.1,0-11.5,1-16.2,3c-4.7,2-8.7,4.9-12,8.6c-3.2,3.7-5.7,8.2-7.3,13.4c-1.7,5.2-2.5,11-2.5,17.4
		c0,6.5,0.9,12.4,2.6,17.6c1.7,5.3,4.2,9.7,7.6,13.4c3.3,3.7,7.4,6.5,12.3,8.5c4.8,2,10.4,3,16.5,3c7.4,0,14-1.2,19.9-3.6
		c5.8-2.4,10.5-5.7,14.1-9.9l-11.4-14.3c-2.6,2.7-5.4,4.9-8.4,6.8c-3,1.9-6.9,2.8-11.6,2.8c-6.2,0-10.7-1.6-13.6-4.7
		s-4.3-7.3-4.3-12.7v-1.2H627.5z M575.4,189.8c0-5.1,1.3-9.1,3.9-12.1c2.6-3,6.3-4.6,10.9-4.6c4.6,0,8.1,1.5,10.3,4.6
		c2.2,3,3.3,7,3.3,12v1.4h-28.5V189.8z"/>
	<path class="st0" d="M701.3,124.8v46.9h-0.8c-1.1-4.5-3.7-8.2-7.8-11.1c-4.1-2.9-8.7-4.3-14-4.3c-10.3,0-18.1,3.6-23.4,10.8
		c-5.3,7.2-7.9,17.7-7.9,31.5c0,13.8,2.6,24.4,7.9,31.6c5.3,7.3,13,10.9,23.4,10.9c2.6,0,5.1-0.4,7.5-1.2c2.4-0.8,4.6-1.9,6.5-3.2
		c1.9-1.4,3.5-3,4.9-5c1.3-1.9,2.3-3.9,2.9-6.1h0.8v13.6h22.9V124.8H701.3z M701.3,210.7c0,3.7-1.4,6.6-4.3,8.7
		c-2.8,2.1-6.4,3.2-10.8,3.2c-4.3,0-7.9-1.5-10.7-4.6c-2.8-3-4.3-7.1-4.3-12.3v-14.1c0-5.2,1.4-9.3,4.3-12.3c2.8-3,6.4-4.6,10.7-4.6
		c4.3,0,7.9,1.1,10.8,3.2c2.8,2.1,4.3,5,4.3,8.7V210.7z"/>
	<path class="st0" d="M764.7,149.4c-4.6,0-8-1.1-10.1-3.2c-2.1-2.1-3.2-4.8-3.2-8.1v-3.4c0-3.3,1.1-6,3.2-8.1
		c2.1-2.1,5.5-3.2,10.1-3.2c4.6,0,8,1.1,10.1,3.2c2.1,2.1,3.2,4.8,3.2,8.1v3.4c0,3.3-1.1,6-3.2,8.1
		C772.7,148.4,769.3,149.4,764.7,149.4"/>
	<rect x="753.3" y="158.1" class="st0" width="22.9" height="81.2"/>
	<path class="st0" d="M827.9,239.3c-7.8,0-13.6-1.9-17.2-5.7c-3.7-3.8-5.5-9.3-5.5-16.5v-92.2h22.9v96.7h10.2v17.8H827.9z"/>
	<path class="st0" d="M859.8,239.3v-81.2h22.9v13.8h0.9c1.4-4.2,4-7.9,7.6-11c3.6-3.1,8.6-4.6,15-4.6c8.4,0,14.7,2.8,18.9,8.4
		c4.3,5.6,6.4,13.5,6.4,23.8v50.9h-22.9v-49c0-5.3-0.8-9.1-2.5-11.7c-1.6-2.5-4.6-3.8-8.8-3.8c-1.9,0-3.7,0.2-5.4,0.7
		c-1.8,0.5-3.3,1.2-4.7,2.2c-1.4,1-2.5,2.3-3.3,3.8c-0.8,1.5-1.2,3.2-1.2,5.2v52.6H859.8z"/>
	<path class="st0" d="M971.1,149.4c-4.6,0-8-1.1-10.1-3.2c-2.1-2.1-3.2-4.8-3.2-8.1v-3.4c0-3.3,1.1-6,3.2-8.1
		c2.1-2.1,5.5-3.2,10.1-3.2c4.6,0,8,1.1,10.1,3.2c2.1,2.1,3.2,4.8,3.2,8.1v3.4c0,3.3-1.1,6-3.2,8.1
		C979.2,148.4,975.8,149.4,971.1,149.4"/>
	<rect x="959.7" y="158.1" class="st0" width="22.9" height="81.2"/>
	<polygon class="st0" points="1011.7,124.8 1034.5,124.8 1034.5,192.4 1035.5,192.4 1045.5,177.4 1061.8,158.1 1087.1,158.1 
		1060.1,189.2 1090.2,239.3 1063,239.3 1044.8,205 1034.5,216.4 1034.5,239.3 1011.7,239.3 	"/>
</g>
</svg>
